<svg width="31" height="31" viewBox="0 0 31 31" fill="none" xmlns="http://www.w3.org/2000/svg">
<path d="M15.2734 2.91992C12.0411 2.91992 8.94117 4.20396 6.65557 6.48956C4.36997 8.77516 3.08594 11.8751 3.08594 15.1074C3.08594 18.3397 4.36997 21.4397 6.65557 23.7253C8.94117 26.0109 12.0411 27.2949 15.2734 27.2949C17.7941 27.2949 20.4414 26.5355 22.3551 25.2641C22.4576 25.1959 22.5458 25.1082 22.6145 25.0059C22.6831 24.9037 22.731 24.7889 22.7553 24.6682C22.7796 24.5475 22.7799 24.4231 22.7562 24.3023C22.7325 24.1814 22.6852 24.0664 22.617 23.9639C22.5488 23.8613 22.4611 23.7732 22.3589 23.7045C22.2566 23.6358 22.1419 23.588 22.0211 23.5636C21.9004 23.5393 21.7761 23.539 21.6552 23.5627C21.5344 23.5865 21.4194 23.6338 21.3168 23.702C19.7266 24.7613 17.4074 25.4199 15.2734 25.4199C13.2338 25.4199 11.24 24.8151 9.54412 23.682C7.84824 22.5488 6.52646 20.9382 5.74593 19.0538C4.9654 17.1695 4.76118 15.096 5.15909 13.0956C5.557 11.0951 6.53917 9.25761 7.9814 7.81538C9.42363 6.37315 11.2611 5.39098 13.2616 4.99307C15.262 4.59516 17.3355 4.79939 19.2199 5.57991C21.1042 6.36044 22.7148 7.68222 23.848 9.3781C24.9811 11.074 25.5859 13.0678 25.5859 15.1074C25.5859 18.207 24.3109 18.8574 23.2422 18.8574C22.1734 18.8574 20.8984 18.207 20.8984 15.1074V10.4199C20.8984 10.1713 20.7997 9.93282 20.6239 9.75701C20.448 9.58119 20.2096 9.48242 19.9609 9.48242C19.7123 9.48242 19.4738 9.58119 19.298 9.75701C19.1222 9.93282 19.0234 10.1713 19.0234 10.4199V10.9191C18.1821 10.1648 17.1331 9.6814 16.0131 9.5318C14.8931 9.38221 13.754 9.57339 12.7443 10.0804C11.7345 10.5875 10.9008 11.3869 10.3519 12.3746C9.8029 13.3622 9.56413 14.4923 9.66663 15.6176C9.76913 16.7428 10.2082 17.8112 10.9265 18.6834C11.6449 19.5556 12.6093 20.1912 13.6941 20.5075C14.7789 20.8237 15.9337 20.806 17.0083 20.4565C18.0828 20.107 19.0272 19.4419 19.7184 18.548C20.4215 19.9543 21.6344 20.7324 23.2422 20.7324C25.8836 20.7324 27.4609 18.6301 27.4609 15.1074C27.4575 11.8761 26.1724 8.77819 23.8875 6.49333C21.6027 4.20847 18.5047 2.92333 15.2734 2.91992ZM15.2734 18.8574C14.5318 18.8574 13.8067 18.6375 13.19 18.2254C12.5734 17.8134 12.0927 17.2277 11.8089 16.5425C11.5251 15.8573 11.4508 15.1033 11.5955 14.3758C11.7402 13.6484 12.0973 12.9802 12.6218 12.4558C13.1462 11.9313 13.8144 11.5742 14.5418 11.4295C15.2693 11.2848 16.0233 11.359 16.7085 11.6429C17.3937 11.9267 17.9794 12.4073 18.3914 13.024C18.8035 13.6407 19.0234 14.3657 19.0234 15.1074C19.0234 16.102 18.6283 17.0558 17.9251 17.7591C17.2218 18.4623 16.268 18.8574 15.2734 18.8574Z" fill="black"/>
</svg>
