<svg width="31" height="31" viewBox="0 0 31 31" fill="none" xmlns="http://www.w3.org/2000/svg">
<path d="M20.2734 5.10742C21.23 5.10737 22.1503 5.47283 22.8463 6.12903C23.5422 6.78522 23.9611 7.68256 24.0172 8.63742L24.0234 8.85742V11.3574C24.98 11.3574 25.9003 11.7228 26.5963 12.379C27.2922 13.0352 27.7111 13.9326 27.7672 14.8874L27.7734 15.1074V20.1074C27.7735 21.0639 27.408 21.9843 26.7518 22.6802C26.0956 23.3762 25.1983 23.7951 24.2434 23.8512L24.0234 23.8574V25.0649C24.0234 26.3399 22.5947 27.0574 21.5809 26.3562L21.4609 26.2662L18.5709 23.8574H14.0234C13.102 23.8588 12.2125 23.5195 11.5259 22.9049L11.3509 22.7374L9.02344 24.4824C8.03469 25.2237 6.64094 24.5762 6.53094 23.3837L6.52344 23.2324V21.3574C5.56692 21.3575 4.64654 20.992 3.95061 20.3358C3.25468 19.6796 2.8358 18.7823 2.77969 17.8274L2.77344 17.6074V8.85742C2.77338 7.90091 3.13884 6.98053 3.79504 6.2846C4.45124 5.58866 5.34857 5.16979 6.30344 5.11367L6.52344 5.10742H20.2734ZM24.0234 13.8574H14.0234C13.6919 13.8574 13.374 13.9891 13.1396 14.2235C12.9051 14.458 12.7734 14.7759 12.7734 15.1074V20.1074C12.7734 20.4389 12.9051 20.7569 13.1396 20.9913C13.374 21.2257 13.6919 21.3574 14.0234 21.3574H18.5709C19.1557 21.3577 19.7218 21.5629 20.1709 21.9374L21.5309 23.0699C21.5716 22.6026 21.7859 22.1675 22.1316 21.8505C22.4774 21.5335 22.9294 21.3575 23.3984 21.3574H24.0234C24.355 21.3574 24.6729 21.2257 24.9073 20.9913C25.1417 20.7569 25.2734 20.4389 25.2734 20.1074V15.1074C25.2734 14.7759 25.1417 14.458 24.9073 14.2235C24.6729 13.9891 24.355 13.8574 24.0234 13.8574ZM20.2734 7.60742H6.52344C6.19192 7.60742 5.87397 7.73912 5.63955 7.97354C5.40513 8.20796 5.27344 8.5259 5.27344 8.85742V17.6074C5.27344 17.9389 5.40513 18.2569 5.63955 18.4913C5.87397 18.7257 6.19192 18.8574 6.52344 18.8574H7.14844C7.64572 18.8574 8.12263 19.055 8.47426 19.4066C8.82589 19.7582 9.02344 20.2351 9.02344 20.7324V21.3574L10.2859 20.4112C10.2777 20.3101 10.2736 20.2088 10.2734 20.1074V15.1074C10.2734 14.1129 10.6685 13.159 11.3718 12.4558C12.075 11.7525 13.0289 11.3574 14.0234 11.3574H21.5234V8.85742C21.5234 8.5259 21.3917 8.20796 21.1573 7.97354C20.9229 7.73912 20.605 7.60742 20.2734 7.60742Z" fill="black"/>
</svg>
